<svg width="24" height="24" viewBox="0 0 24 24" fill="none" xmlns="http://www.w3.org/2000/svg">
<path d="M13.89 2.88002L9.19999 2.14002C5.28999 1.53002 3.47999 2.85002 2.85999 6.76002L2.11999 11.45C1.71999 14.01 2.13999 15.67 3.58999 16.68C4.34999 17.22 5.38999 17.58 6.73999 17.79L11.43 18.53C15.34 19.14 17.15 17.82 17.77 13.91L18.5 9.22002C18.62 8.45002 18.67 7.76002 18.63 7.15002C18.5 4.65002 17.03 3.37002 13.89 2.88002ZM8.23999 9.35002C7.06999 9.35002 6.11999 8.40002 6.11999 7.24002C6.11999 6.07002 7.06999 5.12002 8.23999 5.12002C9.39999 5.12002 10.35 6.07002 10.35 7.24002C10.35 8.40002 9.39999 9.35002 8.23999 9.35002Z" fill="#0C0507"/>
<path d="M20.5001 13.4701L19.0001 17.9801C17.7501 21.7401 15.7501 22.7401 11.9901 21.4901L7.48014 19.9901C6.07014 19.5201 5.05014 18.9401 4.39014 18.2101C5.02014 18.4601 5.75014 18.6501 6.58014 18.7801L11.2801 19.5201C11.9201 19.6201 12.5201 19.6701 13.0801 19.6701C16.3801 19.6701 18.1501 17.8901 18.7601 14.0601L19.4901 9.37006C19.5901 8.79006 19.6301 8.28006 19.6301 7.81006C21.1501 9.06006 21.3701 10.8401 20.5001 13.4701Z" fill="#0C0507"/>
</svg>
