<svg width="36" height="37" viewBox="0 0 36 37" fill="none" xmlns="http://www.w3.org/2000/svg">
<path d="M35.7521 18.4674C35.7521 8.56337 27.9841 0.615723 18.3039 0.615723C8.62375 0.615723 0.855713 8.56337 0.855713 18.4674C0.855713 27.3932 7.18965 34.8518 15.5552 36.1968V23.6028H11.1334V18.4674H15.5552V14.5547C15.5552 10.0306 18.1844 7.5852 22.1282 7.5852C24.0403 7.5852 26.0719 7.95202 26.0719 7.95202V12.3538H23.9208C21.7696 12.3538 21.0526 13.6988 21.0526 15.166V18.4674H25.9524L25.2354 23.6028H21.1721V36.0745C29.4182 34.8518 35.7521 27.3932 35.7521 18.4674Z" fill="white"/>
<path d="M25.1189 23.605L25.836 18.4696H20.9361V15.1682C20.9361 13.701 21.6532 12.356 23.8043 12.356H25.9555V7.95422C25.9555 7.95422 23.9239 7.5874 22.0117 7.5874C18.0679 7.5874 15.4388 10.0328 15.4388 14.5569V18.4696H11.1365V23.605H15.5583V36.0767C16.3948 36.1989 17.3509 36.3212 18.307 36.3212C19.263 36.3212 20.0996 36.1989 21.0557 36.0767V23.605H25.1189Z" fill="#062D3E"/>
</svg>
