<svg width="111" height="111" viewBox="0 0 111 111" fill="none" xmlns="http://www.w3.org/2000/svg">
<circle cx="55.5003" cy="55.501" r="55.5" fill="#EBE3CC"/>
<g clip-path="url(#clip0_13_75)">
<path fill-rule="evenodd" clip-rule="evenodd" d="M67.3497 63.1446C71.6636 62.5811 75.7479 60.3016 79.4747 56.3189C79.7399 56.0547 79.9393 55.7315 80.0568 55.3755C80.1743 55.0195 80.2067 54.6408 80.1512 54.27C85.0331 48.3536 87.9814 40.1513 87.9814 33.8955C87.9814 24.2141 83.3292 23.1896 75.7287 21.5952H75.6138C75.3888 21.1214 75.0355 20.7207 74.5943 20.4387C74.1531 20.1568 73.6417 20.0051 73.1186 20.0009C72.7365 19.9853 72.3551 20.0476 71.9975 20.1839C71.6399 20.3201 71.3136 20.5277 71.0381 20.7939C70.7626 21.0601 70.5437 21.3796 70.3946 21.733C70.2454 22.0864 70.1692 22.4665 70.1703 22.8502C70.1703 24.3293 71.4147 25.4691 73.1186 25.4691C73.7309 25.4562 74.325 25.2575 74.8225 24.8992C82.3082 26.4936 84.3567 26.9482 84.3567 33.8955C84.3567 39.3573 81.5105 46.7592 77.3369 52.1058C76.9701 52.1026 76.6073 52.1827 76.2758 52.3402C75.9442 52.4977 75.6525 52.7283 75.4224 53.015C73.1505 55.2945 69.7491 58.1374 65.55 58.1374C61.4658 58.1374 57.9495 55.2945 55.7925 53.015C55.2795 52.4972 54.6023 52.1756 53.878 52.1058C49.6789 46.7592 46.8583 39.3573 46.8583 33.8955C46.8583 26.9482 48.7727 26.4936 56.2775 24.8992C56.8178 25.2582 57.4485 25.4558 58.0963 25.4691C58.8316 25.5094 59.5531 25.257 60.104 24.7666C60.6548 24.2762 60.9906 23.5876 61.0382 22.8502C61.0215 22.082 60.7029 21.3515 60.1519 20.8179C59.6009 20.2842 58.8621 19.9906 58.0963 20.0009C57.5574 20.005 57.0296 20.1554 56.569 20.4361C56.1084 20.7168 55.732 21.1173 55.4798 21.5952C47.7708 23.1896 43.1186 24.2141 43.1186 33.8955C43.1186 40.1513 46.1818 48.3536 51.0574 54.3852C51.0194 54.7277 51.0507 55.0744 51.1494 55.4044C51.2481 55.7345 51.4121 56.0412 51.6317 56.3061C55.3713 60.2888 59.3407 62.5641 63.5398 63.1318L63.425 75.2976C63.425 83.724 56.1627 90.556 47.2029 90.556C38.2431 90.556 30.8659 83.724 30.8659 75.2976V64.6237C36.0861 63.8297 40.0554 59.6229 40.0554 54.4941C40.0554 48.917 35.065 44.2492 29.0472 44.2492C23.0293 44.2492 18.0452 48.9106 18.0452 54.4941C18.0452 59.6165 22.0146 63.8297 27.2348 64.6237V75.3296C27.2348 85.6897 36.169 94.0009 47.2029 94.0009C58.2367 94.0009 67.171 85.6769 67.171 75.3296V63.1638L67.3497 63.1446Z" fill="#062D3E"/>
<path fill-rule="evenodd" clip-rule="evenodd" d="M29.0019 61.4414C30.8825 61.4844 32.7034 60.7771 34.0649 59.4746C35.4264 58.1722 36.2173 56.381 36.2642 54.4941C36.2642 50.7419 32.9712 47.6685 29.0019 47.6685C24.9176 47.6685 21.7396 50.7419 21.7396 54.4941C21.7396 58.3679 24.9304 61.4414 29.0019 61.4414Z" fill="#FBBD08"/>
</g>
<defs>
<clipPath id="clip0_13_75">
<rect width="70" height="74" fill="white" transform="translate(18.0003 20.001)"/>
</clipPath>
</defs>
</svg>
