<svg width="36" height="37" viewBox="0 0 36 37" fill="none" xmlns="http://www.w3.org/2000/svg">
<path d="M18.262 36.319C27.8984 36.319 35.7102 28.3266 35.7102 18.4674C35.7102 8.60818 27.8984 0.615723 18.262 0.615723C8.62566 0.615723 0.813843 8.60818 0.813843 18.4674C0.813843 28.3266 8.62566 36.319 18.262 36.319Z" fill="white"/>
<path d="M23.641 11.7407C22.924 11.7407 22.4459 12.2298 22.4459 12.9634C22.4459 13.6971 23.0435 14.1862 23.641 14.1862C24.3581 14.1862 24.8361 13.6971 24.8361 12.9634C24.8361 12.3521 24.3581 11.7407 23.641 11.7407Z" fill="#062D3E"/>
<path d="M18.3823 13.3335C15.6336 13.3335 13.3629 15.6567 13.3629 18.4689C13.3629 21.2811 15.6336 23.6043 18.3823 23.6043C21.1309 23.6043 23.4016 21.2811 23.4016 18.4689C23.4016 15.6567 21.1309 13.3335 18.3823 13.3335ZM18.3823 21.7702C16.5896 21.7702 15.1555 20.303 15.1555 18.4689C15.1555 16.6348 16.5896 15.1676 18.3823 15.1676C20.1749 15.1676 21.609 16.6348 21.609 18.4689C21.609 20.303 20.1749 21.7702 18.3823 21.7702Z" fill="#062D3E"/>
<path d="M22.327 28.9834H14.2004C10.8542 28.9834 8.10553 26.1712 8.10553 22.7476V14.4331C8.10553 11.0095 10.8542 8.19727 14.2004 8.19727H22.327C25.6732 8.19727 28.4219 11.0095 28.4219 14.4331V22.6253C28.5414 26.1712 25.7927 28.9834 22.327 28.9834ZM14.2004 10.0313C11.8103 10.0313 10.0177 11.9877 10.0177 14.3108V22.6253C10.0177 25.0707 11.9298 26.9048 14.2004 26.9048H22.327C24.7172 26.9048 26.5098 24.9485 26.5098 22.6253V14.3108C26.5098 11.8654 24.5977 10.0313 22.327 10.0313H14.2004Z" fill="#062D3E"/>
</svg>
