<svg width="111" height="111" viewBox="0 0 111 111" fill="none" xmlns="http://www.w3.org/2000/svg">
<circle cx="55.5" cy="55.5" r="55.5" fill="#EBE3CC"/>
<g clip-path="url(#clip0_13_87)">
<path d="M49.6171 57.5344C49.6171 57.5344 48.0059 69.1918 46.5424 79.8669C46.2615 79.8862 45.9821 79.9246 45.7062 79.9818C44.3299 80.266 43.0827 80.9948 42.156 82.0567C41.2292 83.1187 40.674 84.455 40.5754 85.8608C40.4768 87.2666 40.8403 88.6644 41.6102 89.8398C42.38 91.0153 43.5137 91.9035 44.8375 92.3682C44.4783 95.0362 44.2404 96.8303 44.2123 97.1396C44.0473 98.8961 45.7917 99.3365 46.1712 97.5243C46.2749 97.0272 46.6029 95.1316 47.0073 92.7249C47.4232 92.7222 47.838 92.6783 48.2457 92.594C49.6241 92.31 50.8732 91.58 51.8008 90.516C52.7283 89.4521 53.2831 88.1131 53.3798 86.7051C53.4765 85.297 53.1098 83.8978 52.3359 82.7225C51.5621 81.5472 50.4241 80.6609 49.0967 80.1999C50.307 72.0982 74.7573 15.411 73.5777 14.399C72.398 13.3871 56.4147 44.1181 49.6171 57.5344ZM51.575 85.3396C51.7576 86.2516 51.6665 87.1985 51.3131 88.0604C50.9597 88.9224 50.3599 89.6608 49.5895 90.1823C48.8192 90.7038 47.9129 90.985 46.9852 90.9903C46.0576 90.9956 45.1502 90.7247 44.3778 90.212C43.6055 89.6992 43.0028 88.9677 42.6461 88.1097C42.2893 87.2518 42.1944 86.306 42.3735 85.392C42.5526 84.4779 42.9975 83.6367 43.652 82.9746C44.3066 82.3126 45.1413 81.8594 46.0508 81.6724C46.6548 81.5482 47.2769 81.5445 47.8815 81.6616C48.486 81.7787 49.0613 82.0142 49.5743 82.3548C50.0873 82.6954 50.528 83.1342 50.8713 83.6464C51.2146 84.1585 51.4537 84.7339 51.575 85.3396V85.3396Z" fill="#062D3E"/>
<path d="M35.6375 69.8986L34.459 70.684C33.6025 69.7715 32.4979 69.1311 31.2811 68.8417C30.0643 68.5523 28.7884 68.6264 27.6104 69.055C26.4324 69.4835 25.4037 70.2478 24.6507 71.2538C23.8978 72.2598 23.4536 73.4636 23.3727 74.7172C23.2917 75.9707 23.5776 77.2193 24.1953 78.3093C24.8129 79.3993 25.7352 80.2832 26.8488 80.8522C27.9624 81.4213 29.2187 81.6506 30.4631 81.512C31.7075 81.3735 32.8858 80.8731 33.8529 80.0724C34.027 80.2007 34.1608 80.2968 34.2472 80.3576C35.8508 81.4764 36.8914 79.8555 35.4871 78.6154C35.4465 78.5788 35.372 78.5148 35.2671 78.4292C36.1252 77.0091 36.4047 75.3133 36.0472 73.6959C35.9865 73.4204 35.9076 73.1494 35.8109 72.8847C44.9355 67.1923 54.9027 60.9527 54.9027 60.9527C64.3489 49.2512 85.8365 22.0989 84.4244 21.4334C83.0123 20.7678 41.4281 66.8582 35.6375 69.8986ZM34.3557 74.075C34.5558 74.9832 34.4829 75.9315 34.1462 76.8001C33.8094 77.6687 33.2239 78.4186 32.4637 78.9549C31.7035 79.4912 30.8028 79.7899 29.8753 79.8132C28.9479 79.8365 28.0354 79.5833 27.2532 79.0857C26.4711 78.5881 25.8544 77.8684 25.4811 77.0176C25.1079 76.1668 24.9948 75.2231 25.1562 74.3059C25.3176 73.3886 25.7463 72.539 26.3879 71.8644C27.0296 71.1897 27.8556 70.7205 28.7613 70.5158C29.9762 70.2419 31.2481 70.4629 32.2972 71.1304C33.3462 71.7978 34.0867 72.857 34.3557 74.075V74.075Z" fill="#062D3E"/>
<path d="M51.8462 57.919C51.9123 58.2158 52.0646 58.4859 52.2839 58.6954C52.5033 58.9048 52.7797 59.0441 53.0784 59.0956C53.3772 59.1472 53.6847 59.1087 53.9623 58.9851C54.24 58.8615 54.4752 58.6583 54.6382 58.401C54.8013 58.1438 54.885 57.8442 54.8786 57.5399C54.8723 57.2357 54.7762 56.9404 54.6026 56.6915C54.429 56.4426 54.1856 56.2512 53.9031 56.1414C53.6207 56.0316 53.3118 56.0084 53.0155 56.0746C52.8182 56.1188 52.6313 56.2016 52.4656 56.3182C52.2999 56.4349 52.1587 56.5832 52.05 56.7545C51.9414 56.9259 51.8675 57.117 51.8325 57.3168C51.7975 57.5166 51.8022 57.7213 51.8462 57.919V57.919Z" fill="#FBBD08"/>
</g>
<defs>
<clipPath id="clip0_13_87">
<rect width="35.2873" height="88.6952" fill="white" transform="translate(55.1094 6.48096) rotate(23.5379)"/>
</clipPath>
</defs>
</svg>
