<svg width="35" height="35" viewBox="0 0 35 35" fill="none" xmlns="http://www.w3.org/2000/svg">
<path d="M23.6981 32.8125C25.1076 32.8125 26.2502 31.6699 26.2502 30.2604C26.2502 28.8509 25.1076 27.7083 23.6981 27.7083C22.2886 27.7083 21.146 28.8509 21.146 30.2604C21.146 31.6699 22.2886 32.8125 23.6981 32.8125Z" fill="#0C0507"/>
<path d="M12.0311 32.8125C13.4406 32.8125 14.5832 31.6699 14.5832 30.2604C14.5832 28.8509 13.4406 27.7083 12.0311 27.7083C10.6216 27.7083 9.479 28.8509 9.479 30.2604C9.479 31.6699 10.6216 32.8125 12.0311 32.8125Z" fill="#0C0507"/>
<path d="M7.05817 5.74585L6.7665 9.31877C6.70817 10.0042 7.24775 10.5729 7.93317 10.5729H30.2603C30.8728 10.5729 31.3832 10.1063 31.4269 9.49377C31.6165 6.91252 29.6478 4.81252 27.0665 4.81252H9.14359C8.99775 4.17085 8.70609 3.55835 8.254 3.04794C7.52484 2.27502 6.504 1.82294 5.454 1.82294H2.9165C2.31859 1.82294 1.82275 2.31877 1.82275 2.91669C1.82275 3.5146 2.31859 4.01044 2.9165 4.01044H5.454C5.90609 4.01044 6.329 4.20002 6.63525 4.52085C6.9415 4.85627 7.08734 5.29377 7.05817 5.74585Z" fill="#0C0507"/>
<path d="M29.9107 12.7604H7.53982C6.92732 12.7604 6.43149 13.2271 6.37316 13.825L5.84816 20.1688C5.64399 22.6625 7.59816 24.7917 10.0919 24.7917H26.3086C28.4961 24.7917 30.4211 22.9979 30.5815 20.8104L31.0627 14C31.1211 13.3292 30.5961 12.7604 29.9107 12.7604Z" fill="#0C0507"/>
</svg>
