<svg width="35" height="35" viewBox="0 0 35 35" fill="none" xmlns="http://www.w3.org/2000/svg">
<path d="M11.5936 11.0541C15.1519 7.49581 20.9269 7.49581 24.4852 11.0541C28.0436 14.6125 28.0436 20.3875 24.4852 23.9458C20.9269 27.5041 15.1519 27.5041 11.5936 23.9458C8.03522 20.3875 8.03522 14.6125 11.5936 11.0541Z" fill="#0C0507"/>
<path d="M32.6521 22.9687C32.6521 23.1 32.6229 23.2458 32.5792 23.3771C31.2667 26.6583 28.9479 29.3125 25.8854 31.0917C22.8958 32.8125 19.5125 33.4979 16.0708 33.0458C15.4729 32.9729 15.05 32.4042 15.1229 31.8208C15.1958 31.2229 15.75 30.8 16.3479 30.8729C19.3083 31.2521 22.225 30.6687 24.7917 29.1958C27.4167 27.6792 29.4146 25.3896 30.5375 22.575C30.7708 22.0208 31.3979 21.7437 31.9667 21.9625C32.3896 22.1229 32.6521 22.5458 32.6521 22.9687Z" fill="#0C0507"/>
<path d="M7.62731 26.4688C7.62731 26.7896 7.48148 27.1104 7.20439 27.3292C6.73773 27.7083 6.05231 27.6208 5.67314 27.1396C3.50023 24.3688 2.34814 21.0292 2.34814 17.5C2.34814 14.0583 3.45648 10.7771 5.55648 8.02084C5.92106 7.53959 6.60648 7.45209 7.08773 7.81668C7.56898 8.18126 7.65648 8.86668 7.29189 9.34792C5.48356 11.725 4.53564 14.5396 4.53564 17.5C4.53564 20.5333 5.52731 23.4063 7.39398 25.7979C7.55439 26.0021 7.62731 26.2354 7.62731 26.4688Z" fill="#0C0507"/>
<path d="M32.6522 12.0312C32.6522 12.4687 32.3897 12.8771 31.9667 13.0521C31.4126 13.2708 30.7709 13.0083 30.5376 12.4396C29.4001 9.62499 27.4167 7.33541 24.7917 5.81875C22.2251 4.33125 19.3084 3.74791 16.3626 4.14166C15.7647 4.21458 15.2105 3.79166 15.1376 3.19375C15.0647 2.61041 15.4876 2.04166 16.0855 1.96875C19.5126 1.53125 22.9105 2.20208 25.9001 3.92291C28.9626 5.6875 31.2667 8.35624 32.5938 11.6375C32.623 11.7542 32.6522 11.8854 32.6522 12.0312Z" fill="#0C0507"/>
</svg>
