<svg width="40" height="40" viewBox="0 0 40 40" fill="none" xmlns="http://www.w3.org/2000/svg">
<path d="M35 9.96663C29.45 9.41663 23.8667 9.1333 18.3 9.1333C15 9.1333 11.7 9.29997 8.4 9.6333L5 9.96663" stroke="#0C0507" stroke-width="1.5" stroke-linecap="round" stroke-linejoin="round"/>
<path opacity="0.34" d="M14.1665 8.28325L14.5332 6.09992C14.7998 4.51659 14.9998 3.33325 17.8165 3.33325H22.1832C24.9998 3.33325 25.2165 4.58325 25.4665 6.11659L25.8332 8.28325" stroke="#0C0507" stroke-width="1.5" stroke-linecap="round" stroke-linejoin="round"/>
<path d="M31.4168 15.2334L30.3335 32.0167C30.1502 34.6334 30.0002 36.6667 25.3502 36.6667H14.6502C10.0002 36.6667 9.85016 34.6334 9.66683 32.0167L8.5835 15.2334" stroke="#0C0507" stroke-width="1.5" stroke-linecap="round" stroke-linejoin="round"/>
<path opacity="0.34" d="M17.2168 27.5H22.7668" stroke="#0C0507" stroke-width="1.5" stroke-linecap="round" stroke-linejoin="round"/>
<path opacity="0.34" d="M15.8335 20.8333H24.1668" stroke="#0C0507" stroke-width="1.5" stroke-linecap="round" stroke-linejoin="round"/>
</svg>
