<svg width="36" height="37" viewBox="0 0 36 37" fill="none" xmlns="http://www.w3.org/2000/svg">
<path d="M18.2152 36.319C27.8516 36.319 35.6634 28.3266 35.6634 18.4674C35.6634 8.60818 27.8516 0.615723 18.2152 0.615723C8.57885 0.615723 0.767029 8.60818 0.767029 18.4674C0.767029 28.3266 8.57885 36.319 18.2152 36.319Z" fill="white"/>
<path d="M27.8961 12.3539C27.2985 12.5985 26.5815 12.843 25.984 12.9653C26.3425 12.9653 26.701 12.3539 26.94 12.1094C27.179 11.7426 27.4181 11.3757 27.5376 10.8867V10.7644H27.4181C26.701 11.1312 25.984 11.498 25.1474 11.6203C25.0279 11.6203 25.0279 11.6203 25.0279 11.6203C24.9084 11.498 24.9084 11.498 24.7889 11.3757C24.4303 11.1312 24.0718 10.8867 23.7133 10.6421C23.2353 10.3976 22.6377 10.2753 22.0402 10.3976C21.4426 10.3976 20.9646 10.6421 20.4866 10.8867C20.0085 11.1312 19.5305 11.498 19.172 11.9871C18.8135 12.4762 18.5745 12.9653 18.4549 13.5766C18.3354 14.188 18.3354 14.6771 18.4549 15.2884C18.4549 15.4107 18.4549 15.4107 18.3354 15.4107C15.2282 14.9216 12.599 13.8212 10.4479 11.3757C10.3284 11.2535 10.3284 11.2535 10.2089 11.3757C9.25281 12.843 9.73084 15.0439 10.9259 16.1443C11.0454 16.2666 11.2845 16.3889 11.404 16.6334C11.2845 16.6334 10.5674 16.5112 9.85035 16.1443C9.73084 16.1443 9.73084 16.1443 9.73084 16.2666C9.73084 16.3889 9.73084 16.5112 9.73084 16.7557C9.85035 18.223 10.9259 19.5679 12.2405 20.057C12.36 20.1793 12.599 20.1793 12.7185 20.1793C12.36 20.3016 12.121 20.3016 11.2845 20.1793C11.1649 20.1793 11.1649 20.1793 11.1649 20.3016C11.7625 22.1356 13.1966 22.6247 14.2722 22.9915C14.3917 22.9915 14.5112 22.9915 14.7502 22.9915C14.3917 23.4806 13.1966 23.9697 12.599 24.092C11.5235 24.4588 10.4479 24.5811 9.37231 24.4588C9.25281 24.4588 9.1333 24.4588 9.1333 24.4588V24.5811C9.37232 24.7034 9.61133 24.8256 9.85035 24.9479C10.5674 25.3147 11.2845 25.6815 12.0015 25.8038C15.9453 26.9042 20.2476 26.0483 23.2353 23.1138C25.5059 20.7907 26.3425 17.6116 26.3425 14.3103C26.3425 14.188 26.462 14.0657 26.5815 14.0657C27.179 13.5766 27.6571 13.0876 28.1351 12.4762C27.8961 12.5985 27.8961 12.4762 27.8961 12.3539Z" fill="#062D3E"/>
</svg>
